<svg width="225" height="224" viewBox="0 0 225 224" fill="none" xmlns="http://www.w3.org/2000/svg">
<mask id="mask0_1_4856" style="mask-type:luminance" maskUnits="userSpaceOnUse" x="0" y="0" width="225" height="224">
<rect x="0.5" width="224" height="224" fill="white"/>
</mask>
<g mask="url(#mask0_1_4856)">
<path d="M229.599 206.303C235.001 195.612 219.561 142.154 112.5 142.154C35.2232 142.154 -0.244589 185.91 7.59663 208.085" fill="url(#paint0_radial_1_4856)"/>
<mask id="mask1_1_4856" style="mask-type:luminance" maskUnits="userSpaceOnUse" x="6" y="142" width="225" height="67">
<path d="M229.599 206.303C235.001 195.612 219.561 142.154 112.5 142.154C35.2232 142.154 -0.244589 185.91 7.59663 208.085" fill="white"/>
</mask>
<g mask="url(#mask1_1_4856)">
<ellipse opacity="0.671968" cx="95.9879" cy="172.132" rx="5.88785" ry="3.27041" fill="url(#paint1_linear_1_4856)"/>
<ellipse opacity="0.451707" cx="158.836" cy="179.994" rx="9.28972" ry="5.10184" fill="url(#paint2_linear_1_4856)"/>
<ellipse opacity="0.729957" cx="50.3625" cy="153.535" rx="9.28972" ry="5.10184" fill="url(#paint3_linear_1_4856)"/>
</g>
<path opacity="0.716378" d="M81.7121 148.323C78.1016 152.409 92.3895 156.184 118.675 157.07C147.299 164.869 160.307 166.984 165.565 162.953C170.823 158.923 148.252 146.345 130.581 142.371C112.909 138.397 103.202 140.972 92.3681 143.828C90.9013 144.215 91.6288 143.919 88.3009 145.037C84.9731 146.154 82.5901 147.329 81.7121 148.323Z" fill="url(#paint4_linear_1_4856)"/>
<path d="M120.398 125.203C120.398 125.203 109.316 137.548 116.1 145.16C107.461 145.704 101.772 149.828 101.772 149.828L97.0671 132.86L120.398 125.203Z" fill="url(#paint5_linear_1_4856)"/>
<path d="M102.115 148.904C102.115 148.904 93.4915 145.223 90.0445 145.217C86.5975 145.211 97.2609 132.317 97.2609 132.317L103.492 147.722L102.115 148.904Z" fill="url(#paint6_linear_1_4856)"/>
<path fill-rule="evenodd" clip-rule="evenodd" d="M34.9985 131.021C57.5375 153.296 93.9124 153.169 116.407 130.674C138.902 108.179 139.029 71.8042 116.754 49.2652L34.9985 131.021Z" fill="url(#paint7_linear_1_4856)"/>
<ellipse cx="76.1212" cy="90.8746" rx="12.7761" ry="57.8097" transform="rotate(45 76.1212 90.8746)" fill="url(#paint8_linear_1_4856)"/>
<mask id="mask2_1_4856" style="mask-type:luminance" maskUnits="userSpaceOnUse" x="34" y="49" width="84" height="84">
<ellipse cx="76.1212" cy="90.8746" rx="12.7761" ry="57.8097" transform="rotate(45 76.1212 90.8746)" fill="white"/>
</mask>
<g mask="url(#mask2_1_4856)">
<path d="M92.7687 94.5516L69.3374 83.2634L78.3817 106.709" fill="url(#paint9_linear_1_4856)"/>
</g>
<ellipse cx="67.0863" cy="81.3533" rx="8.25853" ry="8.28718" transform="rotate(-45 67.0863 81.3533)" fill="url(#paint10_linear_1_4856)"/>
<path fill-rule="evenodd" clip-rule="evenodd" d="M40.8338 74.7906C41.2384 74.7912 41.5977 74.612 41.8669 74.3427C42.1811 74.0286 42.3377 73.6018 42.3145 73.1298C42.06 68.6569 43.7386 64.2769 46.9024 61.1131C50.0214 57.9941 54.3564 56.3154 58.7843 56.5249C59.6609 56.5488 60.424 55.8758 60.445 54.9993C60.4661 54.1228 59.7906 53.3575 58.914 53.3336C53.6095 53.1003 48.3986 55.1146 44.6513 58.8619C40.8591 62.6541 38.8674 67.9325 39.1457 73.282C39.2146 74.1587 39.9574 74.8566 40.8338 74.7906ZM50.6452 77.737C51.0344 77.6812 51.3744 77.5318 51.6191 77.287C51.9306 76.9756 52.1214 76.4989 52.0581 75.9906C51.7475 73.6332 52.4982 71.358 54.1001 69.7561C55.6798 68.1764 57.9089 67.4242 60.2187 67.6871C61.0971 67.8091 61.8805 67.1686 61.919 66.2726C61.9813 65.4004 61.2857 64.5714 60.385 64.4716C57.1285 64.1074 53.9667 65.1729 51.7418 67.3978C49.4502 69.6894 48.3863 72.8972 48.822 76.2253C48.944 77.1037 49.7492 77.7754 50.6452 77.737Z" fill="url(#paint11_linear_1_4856)"/>
<path d="M29.6747 72.862C29.4066 73.1301 29.0495 73.3092 28.6257 73.3323C27.756 73.3563 27.0437 72.6887 26.9785 71.8191C26.7039 63.9035 29.7738 56.1598 35.3817 50.5519C38.2138 47.7198 41.5186 45.5526 45.12 44.13C45.4025 43.9834 47.8148 43.6429 48.1613 44.6776C48.5078 45.7123 46.1982 47.1269 46.1982 47.1269C43.031 48.393 40.1232 50.3061 37.6295 52.7998C32.6472 57.7821 29.9358 64.6777 30.1674 71.7461C30.1444 72.1252 29.9651 72.5716 29.6747 72.862Z" fill="url(#paint12_linear_1_4856)"/>
<mask id="mask3_1_4856" style="mask-type:luminance" maskUnits="userSpaceOnUse" x="26" y="43" width="23" height="31">
<path d="M29.6747 72.862C29.4066 73.1301 29.0495 73.3092 28.6257 73.3323C27.756 73.3563 27.0437 72.6887 26.9785 71.8191C26.7039 63.9035 29.7738 56.1598 35.3817 50.5519C38.2138 47.7198 41.5186 45.5526 45.12 44.13C45.4025 43.9834 47.8148 43.6429 48.1613 44.6776C48.5078 45.7123 46.1982 47.1269 46.1982 47.1269C43.031 48.393 40.1232 50.3061 37.6295 52.7998C32.6472 57.7821 29.9358 64.6777 30.1674 71.7461C30.1444 72.1252 29.9651 72.5716 29.6747 72.862Z" fill="white"/>
</mask>
<g mask="url(#mask3_1_4856)">
</g>
<path fill-rule="evenodd" clip-rule="evenodd" d="M60.7823 40.1963C60.3073 39.7213 59.5372 39.7213 59.0622 40.1963L55.9087 43.3498L52.7552 40.1964C52.2802 39.7214 51.5101 39.7214 51.0351 40.1964C50.5601 40.6714 50.5601 41.4415 51.0351 41.9165L54.1886 45.0699L51.0351 48.2234C50.5601 48.6984 50.5601 49.4685 51.0351 49.9435C51.5101 50.4185 52.2802 50.4185 52.7552 49.9435L55.9087 46.79L59.0622 49.9436C59.5372 50.4185 60.3073 50.4185 60.7823 49.9436C61.2573 49.4686 61.2573 48.6985 60.7823 48.2235L57.6288 45.0699L60.7823 41.9164C61.2573 41.4414 61.2573 40.6713 60.7823 40.1963Z" fill="#D3D3D3"/>
<path d="M149.466 129.509C149.466 129.509 148.899 131.166 148.899 132.33C148.331 142.472 149.738 160.501 149.738 160.501H151.924L155.149 134.127L159.522 160.501H161.672C161.672 160.501 161.956 143.036 161.104 132.33C161.104 131.178 160.609 130.072 160.609 130.072L149.466 129.509Z" fill="url(#paint13_linear_1_4856)"/>
<path d="M145.776 115.519L143.015 113.566L143.042 112.044L150.055 108.018L151.799 105.964L154.393 104.317L154.565 104.602L152.641 106.542L151.879 106.64C151.879 106.64 151.865 106.953 151.865 107.486C151.865 108.018 151.464 108.606 151.464 108.606L145.965 112.658L147.149 113.248L145.776 115.519Z" fill="#FFE9E9"/>
<path d="M161.388 119.448L163.564 121.993L164.604 122.548L172.742 115.185L172.407 112.966L164.604 119.448L162.807 117.794L161.388 119.448Z" fill="#FFE9E9"/>
<path d="M172.524 115.221L176.018 114.026L176.717 113.338V111.963C176.717 111.963 176.367 111.275 176.018 111.275C175.668 111.275 172.524 112.651 172.524 112.651C172.524 112.651 172.175 113.682 172.175 114.026C172.175 114.37 172.524 115.221 172.524 115.221Z" fill="#FFE9E9"/>
<path d="M173.875 107.894H176.151C176.463 107.894 176.716 108.146 176.716 108.458V114.092C176.716 114.404 176.463 114.657 176.151 114.657H173.875C173.563 114.657 173.31 114.404 173.31 114.092V108.458C173.31 108.146 173.563 107.894 173.875 107.894Z" fill="#E9E9E9"/>
<path d="M172.541 111.369C172.541 111.369 174.006 110.712 174.372 110.712C174.739 110.712 173.274 112.121 173.274 112.121C173.274 112.121 173.274 113.53 172.541 113.53C171.809 113.53 172.541 111.369 172.541 111.369Z" fill="#FFE9E9"/>
<path d="M163.773 117.475L161.517 120.293L159.905 118.809C159.905 118.809 160.576 123.19 160.872 125.366C161.168 127.542 160.872 131.109 160.872 131.109C160.872 131.109 157.062 131.755 154.748 131.926C152.434 132.096 149.141 131.051 149.141 131.051C149.141 131.051 148.22 124.239 149.141 117.372L145.209 115.926L146.912 112.759C146.912 112.759 148.22 113.248 149.75 113.41C151.281 113.571 152.589 113.41 152.589 113.41L156.847 112.966C156.847 112.966 159.617 113.109 160.253 113.738C160.889 114.366 163.773 117.475 163.773 117.475Z" fill="url(#paint14_linear_1_4856)"/>
<path fill-rule="evenodd" clip-rule="evenodd" d="M155.815 109.866H153.414V113.318H153.414C153.423 113.332 154.374 114.806 154.374 115.294C154.374 115.782 155.805 113.337 155.815 113.318H155.815V113.318C155.815 113.318 155.815 113.318 155.815 113.318H155.815V109.866Z" fill="#FECECD"/>
<ellipse cx="154.477" cy="109.336" rx="2.15786" ry="3.36" fill="#FFE9E9"/>
<path fill-rule="evenodd" clip-rule="evenodd" d="M152.109 109.709C152.281 109.069 152.281 107.656 152.626 107.61C152.972 107.564 153.662 107.832 154.353 107.313C154.698 107.028 154.871 106.992 154.871 106.849C156.597 107.19 155.564 108.218 156.424 109.352C156.514 109.47 156.769 109.352 156.769 109.352C156.769 109.352 156.769 106.562 156.597 106.313C156.424 106.064 155.734 105.062 155.388 105.777C155.388 105.419 154.698 105.05 154.007 105.324C153.317 105.598 152.281 106.134 152.109 106.849C151.936 107.564 151.763 108.994 152.109 109.709Z" fill="#513450"/>
<path d="M150.217 160.311L149.523 161.249C149.117 161.797 148.898 162.461 148.898 163.143C148.898 163.186 148.933 163.22 148.976 163.22H152.234C152.415 163.22 152.562 163.073 152.562 162.892C152.562 162.151 152.394 161.419 152.072 160.751L151.859 160.311H150.217Z" fill="#677285"/>
<path d="M161.463 160.311L162.157 161.249C162.562 161.797 162.781 162.461 162.781 163.143C162.781 163.186 162.746 163.22 162.704 163.22H159.446C159.265 163.22 159.118 163.073 159.118 162.892C159.118 162.151 159.285 161.419 159.608 160.751L159.821 160.311H161.463Z" fill="#677285"/>
</g>
<defs>
<radialGradient id="paint0_radial_1_4856" cx="0" cy="0" r="1" gradientUnits="userSpaceOnUse" gradientTransform="translate(103.68 165.019) rotate(-90) scale(38.3341 400.361)">
<stop stop-color="#EBEDF0" stop-opacity="0.24"/>
<stop offset="0.536775" stop-color="#EBEDF0" stop-opacity="0.845525"/>
<stop offset="1" stop-color="#E0E4E7" stop-opacity="0.01"/>
</radialGradient>
<linearGradient id="paint1_linear_1_4856" x1="91.2487" y1="171.265" x2="93.0425" y2="175.101" gradientUnits="userSpaceOnUse">
<stop stop-color="#E1E7EA"/>
<stop offset="1" stop-color="#D0D6DC"/>
</linearGradient>
<linearGradient id="paint2_linear_1_4856" x1="151.035" y1="179.517" x2="154.318" y2="186.364" gradientUnits="userSpaceOnUse">
<stop stop-color="#E1E7EA"/>
<stop offset="1" stop-color="#D0D6DC"/>
</linearGradient>
<linearGradient id="paint3_linear_1_4856" x1="44.4392" y1="153.618" x2="46.2964" y2="161.017" gradientUnits="userSpaceOnUse">
<stop stop-color="#FBFBFB"/>
<stop offset="1" stop-color="#D9DFE3"/>
</linearGradient>
<linearGradient id="paint4_linear_1_4856" x1="256.968" y1="159.324" x2="253.469" y2="99.261" gradientUnits="userSpaceOnUse">
<stop stop-color="#D5E1F0" stop-opacity="0.01"/>
<stop offset="1" stop-color="#D9DDE2"/>
</linearGradient>
<linearGradient id="paint5_linear_1_4856" x1="92.6624" y1="139.558" x2="111.782" y2="147.869" gradientUnits="userSpaceOnUse">
<stop stop-color="#F8FBFF"/>
<stop offset="1" stop-color="#D9DDE2"/>
</linearGradient>
<linearGradient id="paint6_linear_1_4856" x1="94.5463" y1="151.877" x2="104.953" y2="142.966" gradientUnits="userSpaceOnUse">
<stop stop-color="#F8FBFF"/>
<stop offset="1" stop-color="#D9DDE2"/>
</linearGradient>
<linearGradient id="paint7_linear_1_4856" x1="59.714" y1="169.416" x2="147.351" y2="106.538" gradientUnits="userSpaceOnUse">
<stop stop-color="#F8FBFF"/>
<stop offset="1" stop-color="#D9DDE2"/>
</linearGradient>
<linearGradient id="paint8_linear_1_4856" x1="70.3112" y1="-0.796747" x2="19.0221" y2="18.5548" gradientUnits="userSpaceOnUse">
<stop stop-color="#E6ECF3"/>
<stop offset="1" stop-color="#D9DDE2"/>
</linearGradient>
<linearGradient id="paint9_linear_1_4856" x1="73.8944" y1="103.948" x2="88.0253" y2="93.1751" gradientUnits="userSpaceOnUse">
<stop stop-color="white"/>
<stop offset="1" stop-color="#CCD7E7"/>
</linearGradient>
<linearGradient id="paint10_linear_1_4856" x1="55.7926" y1="78.7891" x2="65.9169" y2="91.963" gradientUnits="userSpaceOnUse">
<stop stop-color="#FDFDFD"/>
<stop offset="1" stop-color="#D7DBE0"/>
</linearGradient>
<linearGradient id="paint11_linear_1_4856" x1="81.0408" y1="45.5522" x2="52.9342" y2="31.4692" gradientUnits="userSpaceOnUse">
<stop stop-color="#EEEEEE"/>
<stop offset="1" stop-color="#D8D8D8"/>
</linearGradient>
<linearGradient id="paint12_linear_1_4856" x1="69.8818" y1="31.1425" x2="52.3641" y2="19.0015" gradientUnits="userSpaceOnUse">
<stop stop-color="#EEEEEE"/>
<stop offset="1" stop-color="#D8D8D8"/>
</linearGradient>
<linearGradient id="paint13_linear_1_4856" x1="161.694" y1="160.501" x2="161.694" y2="129.741" gradientUnits="userSpaceOnUse">
<stop stop-color="#A1A7B8"/>
<stop offset="1" stop-color="#7B8195"/>
</linearGradient>
<linearGradient id="paint14_linear_1_4856" x1="173.165" y1="121.521" x2="157.084" y2="141.635" gradientUnits="userSpaceOnUse">
<stop stop-color="#E5E9F0"/>
<stop offset="1" stop-color="#D2DAE8"/>
</linearGradient>
</defs>
</svg>
