<svg width="24" height="24" viewBox="0 0 24 24" fill="none" xmlns="http://www.w3.org/2000/svg">
<g id="trash-02">
<path id="Icon" d="M2.4 5.3998H21.6M9.6 17.3998V10.1998M14.4 17.3998V10.1998M16.8 22.1998H7.2C5.87452 22.1998 4.8 21.1253 4.8 19.7998V6.5998C4.8 5.93706 5.33726 5.3998 6 5.3998H18C18.6627 5.3998 19.2 5.93706 19.2 6.5998V19.7998C19.2 21.1253 18.1255 22.1998 16.8 22.1998ZM9.6 5.3998H14.4C15.0627 5.3998 15.6 4.86255 15.6 4.1998V2.9998C15.6 2.33706 15.0627 1.7998 14.4 1.7998H9.6C8.93726 1.7998 8.4 2.33706 8.4 2.9998V4.1998C8.4 4.86255 8.93726 5.3998 9.6 5.3998Z" stroke="#ED2929" stroke-width="2" stroke-linecap="round" stroke-linejoin="round"/>
</g>
</svg>
